<svg width="78" height="71" viewBox="0 0 78 71" fill="none" xmlns="http://www.w3.org/2000/svg">
<path d="M67 18H11C7.13401 18 4 21.134 4 25V60C4 63.866 7.13401 67 11 67H67C70.866 67 74 63.866 74 60V25C74 21.134 70.866 18 67 18Z" stroke="#243047" stroke-width="7" stroke-linecap="round" stroke-linejoin="round"/>
<path d="M53 67V11C53 9.14348 52.2625 7.36301 50.9497 6.05025C49.637 4.7375 47.8565 4 46 4H32C30.1435 4 28.363 4.7375 27.0503 6.05025C25.7375 7.36301 25 9.14348 25 11V67" stroke="#243047" stroke-width="7" stroke-linecap="round" stroke-linejoin="round"/>
</svg>
