<svg width="272" height="276" viewBox="0 0 272 276" fill="none" xmlns="http://www.w3.org/2000/svg">
<path d="M147.5 249C216.259 249 272 193.259 272 124.5C272 55.7405 216.259 0 147.5 0C78.7405 0 23 55.7405 23 124.5C23 193.259 78.7405 249 147.5 249Z" fill="#019BFB"/>
<path opacity="0.2" d="M194.188 202.312C194.188 206.592 190.686 210.094 186.406 210.094H108.594C104.314 210.094 100.812 206.592 100.812 202.312C100.812 198.033 104.314 194.531 108.594 194.531H186.406C190.686 194.531 194.188 198.033 194.188 202.312Z" fill="#231F20"/>
<path d="M194.188 194.531C194.188 198.811 190.686 202.312 186.406 202.312H108.594C104.314 202.312 100.812 198.811 100.812 194.531C100.812 190.252 104.314 186.75 108.594 186.75H186.406C190.686 186.75 194.188 190.252 194.188 194.531Z" fill="white"/>
<path d="M166.953 163.407C166.953 163.407 163.062 186.75 178.625 186.75H116.375L128.047 163.407H166.953Z" fill="#E0E0D1"/>
<path opacity="0.2" d="M225.312 155.625C225.312 164.184 218.309 171.188 209.75 171.188H85.25C76.6906 171.188 69.6875 164.184 69.6875 155.625V70.0312C69.6875 61.4719 76.6906 54.4688 85.25 54.4688H209.75C218.309 54.4688 225.312 61.4719 225.312 70.0312V155.625Z" fill="#231F20"/>
<path d="M85.25 157.57C79.8031 157.57 75.5234 153.291 75.5234 147.844V62.25C75.5234 56.8031 79.8031 52.5234 85.25 52.5234H209.75C215.197 52.5234 219.477 56.8031 219.477 62.25V147.844C219.477 153.291 215.197 157.57 209.75 157.57H85.25Z" fill="#4F5D73"/>
<path d="M209.75 58.3594C212.084 58.3594 213.641 59.9156 213.641 62.25V147.844C213.641 150.178 212.084 151.734 209.75 151.734H85.25C82.9156 151.734 81.3594 150.178 81.3594 147.844V62.25C81.3594 59.9156 82.9156 58.3594 85.25 58.3594H209.75ZM209.75 46.6875H85.25C76.6906 46.6875 69.6875 53.6906 69.6875 62.25V147.844C69.6875 156.403 76.6906 163.406 85.25 163.406H209.75C218.309 163.406 225.312 156.403 225.312 147.844V62.25C225.312 53.6906 218.309 46.6875 209.75 46.6875Z" fill="white"/>
<path opacity="0.2" d="M217.531 155.236V54.0793H124.934L183.293 155.236H217.531Z" fill="white"/>
<path d="M50.4104 275.821C78.2514 275.821 100.821 253.251 100.821 225.41C100.821 197.57 78.2514 175 50.4104 175C22.5695 175 0 197.57 0 225.41C0 253.251 22.5695 275.821 50.4104 275.821Z" fill="#243047"/>
<path opacity="0.2" d="M78.6088 247.78L56.3966 225.568C54.8213 223.993 52.4583 223.363 50.4104 223.993L37.6503 211.39L32.9243 202.096L23.6298 197.37L19.0614 201.781L23.7874 211.075L33.0818 215.801L45.842 228.404C45.2118 230.451 45.842 232.814 47.4173 234.39L69.6294 256.602C72.1499 259.122 76.0882 259.122 78.6088 256.602C81.1293 254.239 81.1293 250.301 78.6088 247.78V247.78Z" fill="#231F20"/>
<path d="M54.3488 233.76L28.9861 208.712L33.5545 204.301L58.9173 229.349L54.3488 233.76Z" fill="#4F5D73"/>
<path d="M78.6088 253.609C76.0883 256.129 72.15 256.129 69.6295 253.609L47.4174 231.397C44.8968 228.876 44.8968 224.938 47.4174 222.417C49.9379 219.897 53.8762 219.897 56.3967 222.417L78.6088 244.629C81.1294 247.15 81.1294 251.088 78.6088 253.609Z" fill="#F5CF87"/>
<path opacity="0.2" d="M83.9648 203.986L73.7252 214.226C71.2047 216.746 67.2664 216.746 64.7458 214.226C62.2253 211.705 62.2253 207.767 64.7458 205.246L74.9855 195.007C73.2526 194.376 71.3622 193.904 69.3143 193.904C60.65 193.904 53.561 200.993 53.561 209.657C53.561 211.705 54.0336 213.595 54.6637 215.328L37.3351 232.657C35.4448 232.184 33.5544 231.712 31.5064 231.712C22.8421 231.712 15.7532 238.801 15.7532 247.465C15.7532 249.513 16.2258 251.403 16.8559 253.136L27.0955 242.896C29.616 240.376 33.5544 240.376 36.0749 242.896C38.5954 245.417 38.5954 249.355 36.0749 251.876L25.8353 262.115C27.5681 262.746 29.616 263.218 31.5064 263.218C40.1707 263.218 47.2597 256.129 47.2597 247.465C47.2597 245.417 46.7871 243.527 46.157 241.794L63.4856 224.465C65.2184 225.095 67.2664 225.568 69.1567 225.568C77.821 225.568 84.91 218.479 84.91 209.815C85.0675 207.609 84.5949 205.719 83.9648 203.986V203.986Z" fill="#231F20"/>
<path d="M36.3745 230.534L55.4224 211.487L64.3337 220.398L45.2858 239.446L36.3745 230.534Z" fill="white"/>
<path d="M33.0818 212.651L23.7874 207.925L19.0614 198.63L23.4723 194.062L32.7667 198.945L37.6503 208.24L33.0818 212.651Z" fill="#4F5D73"/>
<path d="M73.7253 210.918C71.2048 213.438 67.2665 213.438 64.746 210.918C62.2254 208.397 62.2254 204.459 64.746 201.938L74.9856 191.699C73.2527 191.226 71.3623 190.753 69.3144 190.753C60.6501 190.753 53.5612 197.842 53.5612 206.507C53.5612 215.171 60.6501 222.26 69.3144 222.26C77.9787 222.26 85.0677 215.171 85.0677 206.507C85.0677 204.459 84.5951 202.568 83.965 200.836L73.7253 210.918Z" fill="white"/>
<path d="M27.0955 239.904C29.616 237.383 33.5544 237.383 36.0749 239.904C38.5954 242.424 38.5954 246.363 36.0749 248.883L25.8353 259.123C27.5681 259.753 29.616 260.226 31.5064 260.226C40.1707 260.226 47.2597 253.137 47.2597 244.472C47.2597 235.808 40.1707 228.719 31.5064 228.719C22.8421 228.719 15.7532 235.808 15.7532 244.472C15.7532 246.52 16.2258 248.411 16.8559 250.143L27.0955 239.904Z" fill="white"/>
</svg>
