<svg width="249" height="249" viewBox="0 0 249 249" fill="none" xmlns="http://www.w3.org/2000/svg">
<path d="M124.5 249C193.259 249 249 193.259 249 124.5C249 55.7405 193.259 0 124.5 0C55.7405 0 0 55.7405 0 124.5C0 193.259 55.7405 249 124.5 249Z" fill="#019BFB"/>
<path opacity="0.2" d="M171.188 202.312C171.188 206.592 167.686 210.094 163.406 210.094H85.5938C81.3141 210.094 77.8125 206.592 77.8125 202.312C77.8125 198.033 81.3141 194.531 85.5938 194.531H163.406C167.686 194.531 171.188 198.033 171.188 202.312Z" fill="#231F20"/>
<path d="M171.188 194.531C171.188 198.811 167.686 202.312 163.406 202.312H85.5938C81.3141 202.312 77.8125 198.811 77.8125 194.531C77.8125 190.252 81.3141 186.75 85.5938 186.75H163.406C167.686 186.75 171.188 190.252 171.188 194.531Z" fill="white"/>
<path d="M143.953 163.407C143.953 163.407 140.062 186.75 155.625 186.75H93.375L105.047 163.407H143.953Z" fill="#E0E0D1"/>
<path opacity="0.2" d="M202.312 155.625C202.312 164.184 195.309 171.188 186.75 171.188H62.25C53.6906 171.188 46.6875 164.184 46.6875 155.625V70.0312C46.6875 61.4719 53.6906 54.4688 62.25 54.4688H186.75C195.309 54.4688 202.312 61.4719 202.312 70.0312V155.625Z" fill="#231F20"/>
<path d="M62.25 157.57C56.8031 157.57 52.5234 153.291 52.5234 147.844V62.25C52.5234 56.8031 56.8031 52.5234 62.25 52.5234H186.75C192.197 52.5234 196.477 56.8031 196.477 62.25V147.844C196.477 153.291 192.197 157.57 186.75 157.57H62.25Z" fill="#4F5D73"/>
<path d="M186.75 58.3594C189.084 58.3594 190.641 59.9156 190.641 62.25V147.844C190.641 150.178 189.084 151.734 186.75 151.734H62.25C59.9156 151.734 58.3594 150.178 58.3594 147.844V62.25C58.3594 59.9156 59.9156 58.3594 62.25 58.3594H186.75ZM186.75 46.6875H62.25C53.6906 46.6875 46.6875 53.6906 46.6875 62.25V147.844C46.6875 156.403 53.6906 163.406 62.25 163.406H186.75C195.309 163.406 202.312 156.403 202.312 147.844V62.25C202.312 53.6906 195.309 46.6875 186.75 46.6875Z" fill="white"/>
<path opacity="0.2" d="M194.531 155.236V54.0793H101.934L160.293 155.236H194.531Z" fill="white"/>
</svg>
