<svg width="47" height="47" viewBox="0 0 47 47" fill="none" xmlns="http://www.w3.org/2000/svg">
<path d="M44.9868 34.6403V41.1232C44.9892 41.725 44.8659 42.3207 44.6247 42.8721C44.3836 43.4235 44.0299 43.9185 43.5863 44.3254C43.1427 44.7322 42.6191 45.042 42.0488 45.2348C41.4786 45.4276 40.8744 45.4992 40.2748 45.445C33.6238 44.7225 27.2349 42.4503 21.6217 38.811C16.3993 35.4932 11.9717 31.0665 8.65313 25.8453C5.00027 20.2079 2.72702 13.7894 2.01754 7.10998C1.96353 6.51241 2.03456 5.91014 2.22612 5.34152C2.41768 4.7729 2.72556 4.25039 3.13017 3.80725C3.53478 3.36411 4.02725 3.01005 4.57622 2.76762C5.1252 2.52519 5.71865 2.3997 6.31879 2.39914H12.8031C13.852 2.38881 14.869 2.76018 15.6643 3.44402C16.4596 4.12786 16.9791 5.0775 17.1259 6.11595C17.3996 8.19059 17.9072 10.2276 18.6389 12.1882C18.9297 12.9616 18.9927 13.8022 18.8203 14.6103C18.6479 15.4185 18.2474 16.1602 17.6663 16.7478L14.9213 19.4922C17.9982 24.9022 22.4786 29.3816 27.8899 32.4578L30.6349 29.7134C31.2225 29.1324 31.9645 28.732 32.7728 28.5597C33.5811 28.3873 34.4219 28.4502 35.1955 28.741C37.1565 29.4726 39.194 29.98 41.2691 30.2536C42.3191 30.4017 43.2779 30.9305 43.9634 31.7393C44.6489 32.5481 45.0131 33.5806 44.9868 34.6403Z" stroke="white" stroke-width="3" stroke-linecap="round" stroke-linejoin="round"/>
</svg>
