<svg width="101" height="101" viewBox="0 0 101 101" fill="none" xmlns="http://www.w3.org/2000/svg">
<path d="M50.4104 100.821C78.2514 100.821 100.821 78.2514 100.821 50.4104C100.821 22.5695 78.2514 0 50.4104 0C22.5695 0 0 22.5695 0 50.4104C0 78.2514 22.5695 100.821 50.4104 100.821Z" fill="#243047"/>
<path opacity="0.2" d="M78.6087 72.7801L56.3966 50.568C54.8213 48.9926 52.4583 48.3625 50.4104 48.9926L37.6503 36.39L32.9243 27.0956L23.6298 22.3696L19.0614 26.7805L23.7874 36.075L33.0818 40.8009L45.842 53.4036C45.2118 55.4515 45.842 57.8145 47.4173 59.3898L69.6294 81.6019C72.1499 84.1224 76.0882 84.1224 78.6087 81.6019C81.1293 79.2389 81.1293 75.3006 78.6087 72.7801Z" fill="#231F20"/>
<path d="M54.3488 58.7599L28.9861 33.7122L33.5545 29.3013L58.9173 54.349L54.3488 58.7599Z" fill="#4F5D73"/>
<path d="M78.6088 78.6087C76.0883 81.1292 72.15 81.1292 69.6295 78.6087L47.4174 56.3966C44.8968 53.8761 44.8968 49.9378 47.4174 47.4172C49.9379 44.8967 53.8762 44.8967 56.3967 47.4172L78.6088 69.6294C81.1294 72.1499 81.1294 76.0882 78.6088 78.6087Z" fill="#F5CF87"/>
<path opacity="0.2" d="M83.9648 28.9859L73.7252 39.2255C71.2047 41.746 67.2663 41.746 64.7458 39.2255C62.2253 36.705 62.2253 32.7667 64.7458 30.2462L74.9855 20.0065C73.2526 19.3764 71.3622 18.9038 69.3143 18.9038C60.65 18.9038 53.561 25.9928 53.561 34.6571C53.561 36.705 54.0336 38.5954 54.6637 40.3283L37.3351 57.6568C35.4448 57.1842 33.5544 56.7116 31.5064 56.7116C22.8421 56.7116 15.7532 63.8006 15.7532 72.4649C15.7532 74.5128 16.2258 76.4032 16.8559 78.1361L27.0955 67.8965C29.616 65.3759 33.5544 65.3759 36.0749 67.8965C38.5954 70.417 38.5954 74.3553 36.0749 76.8758L25.8353 87.1154C27.5681 87.7456 29.616 88.2182 31.5064 88.2182C40.1707 88.2182 47.2597 81.1292 47.2597 72.4649C47.2597 70.417 46.7871 68.5266 46.157 66.7937L63.4856 49.4651C65.2184 50.0953 67.2664 50.5679 69.1567 50.5679C77.821 50.5679 84.91 43.4789 84.91 34.8146C85.0675 32.6091 84.5949 30.7188 83.9648 28.9859Z" fill="#231F20"/>
<path d="M36.3745 55.5344L55.4224 36.4865L64.3337 45.3978L45.2858 64.4457L36.3745 55.5344Z" fill="white"/>
<path d="M33.0818 37.6506L23.7874 32.9246L19.0614 23.6302L23.4723 19.0618L32.7667 23.9453L37.6503 33.2397L33.0818 37.6506Z" fill="#4F5D73"/>
<path d="M73.7253 35.9176C71.2048 38.4381 67.2665 38.4381 64.746 35.9176C62.2254 33.3971 62.2254 29.4588 64.746 26.9382L74.9856 16.6986C73.2527 16.226 71.3623 15.7534 69.3144 15.7534C60.6501 15.7534 53.5612 22.8424 53.5612 31.5067C53.5612 40.171 60.6501 47.2599 69.3144 47.2599C77.9787 47.2599 85.0677 40.171 85.0677 31.5067C85.0677 29.4588 84.5951 27.5684 83.965 25.8355L73.7253 35.9176Z" fill="white"/>
<path d="M27.0955 64.9038C29.616 62.3833 33.5544 62.3833 36.0749 64.9038C38.5954 67.4243 38.5954 71.3627 36.0749 73.8832L25.8353 84.1228C27.5681 84.7529 29.616 85.2255 31.5064 85.2255C40.1707 85.2255 47.2597 78.1366 47.2597 69.4723C47.2597 60.808 40.1707 53.719 31.5064 53.719C22.8421 53.719 15.7532 60.808 15.7532 69.4723C15.7532 71.5202 16.2258 73.4106 16.8559 75.1434L27.0955 64.9038Z" fill="white"/>
</svg>
