<svg width="48" height="40" viewBox="0 0 48 40" fill="none" xmlns="http://www.w3.org/2000/svg">
<path d="M34 38.3576V34.3585C34 32.2373 33.1571 30.2029 31.6569 28.703C30.1566 27.203 28.1217 26.3604 26 26.3604H10C7.87827 26.3604 5.84344 27.203 4.34315 28.703C2.84285 30.2029 2 32.2373 2 34.3585V38.3576" stroke="white" stroke-width="3" stroke-linecap="round" stroke-linejoin="round"/>
<path d="M18 18.3623C22.4183 18.3623 26 14.7814 26 10.3642C26 5.94688 22.4183 2.36597 18 2.36597C13.5817 2.36597 10 5.94688 10 10.3642C10 14.7814 13.5817 18.3623 18 18.3623Z" stroke="white" stroke-width="3" stroke-linecap="round" stroke-linejoin="round"/>
<path d="M46 38.3582V34.3591C45.9987 32.587 45.4087 30.8654 44.3227 29.4648C43.2368 28.0642 41.7163 27.0639 40 26.6208" stroke="white" stroke-width="3" stroke-linecap="round" stroke-linejoin="round"/>
<path d="M32 2.62622C33.7208 3.06672 35.2461 4.0673 36.3353 5.4702C37.4245 6.8731 38.0157 8.59852 38.0157 10.3745C38.0157 12.1504 37.4245 13.8758 36.3353 15.2787C35.2461 16.6816 33.7208 17.6822 32 18.1227" stroke="white" stroke-width="3" stroke-linecap="round" stroke-linejoin="round"/>
</svg>
